<?xml version="1.0" encoding="UTF-8"?>
<svg version="1.1" xmlns="http://www.w3.org/2000/svg" width="50" height="50">
<path d="M0 0 C3.0703125 1.56640625 3.0703125 1.56640625 6.125 3.5625 C9.81169885 6.26256615 9.81169885 6.26256615 14.0859375 6.7265625 C14.71757812 6.48679687 15.34921875 6.24703125 16 6 C17.49701785 5.88666942 18.9987535 5.82535314 20.5 5.8125 C21.2528125 5.79832031 22.005625 5.78414062 22.78125 5.76953125 C25.24864173 6.02582722 26.86356256 6.77154847 29 8 C29.4453125 10.19921875 29.4453125 10.19921875 29 13 C26.61621345 14.9076358 24.50370841 16.33323619 21.875 17.8125 C21.20984375 18.21919922 20.5446875 18.62589844 19.859375 19.04492188 C15.80612026 21.40932047 12.79576063 22.79715056 8 22 C4.59333282 20.34214376 1.45075903 18.40742783 -1.78125 16.43359375 C-5.44788541 14.80051705 -7.19000418 14.94995597 -11 16 C-11.13496251 13.89758397 -11.23197307 11.7927039 -11.3125 9.6875 C-11.37050781 8.51574219 -11.42851562 7.34398437 -11.48828125 6.13671875 C-11 3 -11 3 -8.85546875 1.08203125 C-5.53751001 -0.1752527 -3.52279129 -0.47060189 0 0 Z " fill="#FEB74D" transform="translate(16,24)"/>
<path d="M0 0 C9.9 0 19.8 0 30 0 C30 5.61 30 11.22 30 17 C25.41015625 17.24414062 25.41015625 17.24414062 20.8203125 17.48828125 C19.88960937 17.65714844 18.95890625 17.82601563 18 18 C17.34 18.99 16.68 19.98 16 21 C15.34 21 14.68 21 14 21 C13.34 20.01 12.68 19.02 12 18 C9.11404054 17.41518879 9.11404054 17.41518879 5.875 17.3125 C3.93625 17.209375 1.9975 17.10625 0 17 C0 11.39 0 5.78 0 0 Z " fill="#42A5F5" transform="translate(12,4)"/>
<path d="M0 0 C10.83984375 -0.09765625 10.83984375 -0.09765625 14 0 C15 1 15 1 15.11352539 2.94946289 C15.10828857 3.7821167 15.10305176 4.61477051 15.09765625 5.47265625 C15.09443359 6.37177734 15.09121094 7.27089844 15.08789062 8.19726562 C15.07951172 9.14279297 15.07113281 10.08832031 15.0625 11.0625 C15.05798828 12.01189453 15.05347656 12.96128906 15.04882812 13.93945312 C15.0370011 16.29303065 15.02052025 18.64648477 15 21 C14.56518311 20.5155542 14.13036621 20.0311084 13.68237305 19.53198242 C11.21855859 17.28841317 9.08535267 17.48845982 5.8125 17.3125 C3.894375 17.209375 1.97625 17.10625 0 17 C0 11.39 0 5.78 0 0 Z " fill="#90CAF9" transform="translate(12,4)"/>
<path d="M0 0 C1.21236328 0.02707031 1.21236328 0.02707031 2.44921875 0.0546875 C3.37154297 0.08949219 3.37154297 0.08949219 4.3125 0.125 C4.3125 0.785 4.3125 1.445 4.3125 2.125 C2.07070623 3.49465208 -0.17922338 4.84552808 -2.4375 6.1875 C-3.07171875 6.57744141 -3.7059375 6.96738281 -4.359375 7.36914062 C-9.14799625 10.18744376 -9.14799625 10.18744376 -11.73144531 9.88842773 C-14.74909414 8.71067088 -16.52269088 6.47020988 -18.6875 4.125 C-17.635625 4.5890625 -17.635625 4.5890625 -16.5625 5.0625 C-13.59813343 6.15802678 -10.81051892 6.68922992 -7.6875 7.125 C-7.749375 6.34125 -7.81125 5.5575 -7.875 4.75 C-7.813125 3.88375 -7.75125 3.0175 -7.6875 2.125 C-4.48369983 -0.01086678 -3.66810033 -0.10632175 0 0 Z " fill="#EFA941" transform="translate(36.6875,29.875)"/>
<path d="M0 0 C-2.36292656 2.52588702 -3.66462511 3.88820837 -7 5 C-7.33 4.01 -7.66 3.02 -8 2 C-4.77208445 -0.1519437 -3.71599191 -0.20086443 0 0 Z " fill="#E39D36" transform="translate(37,30)"/>
</svg>
